<svg xmlns="http://www.w3.org/2000/svg" width="24.821" height="24.821" viewBox="0 0 24.821 24.821">
  <path id="facebook-square" d="M22.161,32H2.659A2.659,2.659,0,0,0,0,34.659v19.5a2.659,2.659,0,0,0,2.659,2.659h7.6V48.382H6.773V44.41h3.49V41.383c0-3.443,2.05-5.345,5.19-5.345a21.145,21.145,0,0,1,3.076.268v3.38H16.8a1.986,1.986,0,0,0-2.239,2.146V44.41h3.811l-.609,3.972h-3.2v8.438h7.6a2.659,2.659,0,0,0,2.659-2.659v-19.5A2.659,2.659,0,0,0,22.161,32Z" transform="translate(0 -32)" fill="#3a5795"/>
</svg>
